<svg xmlns="http://www.w3.org/2000/svg" xmlns:xlink="http://www.w3.org/1999/xlink" viewBox="0,0,256,256" width="150px" height="150px" fill-rule="nonzero"><g fill="#208379" fill-rule="nonzero" stroke="none" stroke-width="1" stroke-linecap="butt" stroke-linejoin="miter" stroke-miterlimit="10" stroke-dasharray="" stroke-dashoffset="0" font-family="none" font-weight="none" font-size="none" text-anchor="none" style="mix-blend-mode: normal"><g transform="scale(2.56,2.56)"><path d="M50.84766,18c-8.2442,0 -15.73094,4.82937 -19.13086,12.33984l-2.37695,5.24805c-0.14,0.30964 -0.11318,0.66919 0.0712,0.95464c0.18438,0.28545 0.50109,0.45775 0.84091,0.45747h47.67774c0.83706,0 1.5,0.66294 1.5,1.5c0,0.83706 -0.66294,1.5 -1.5,1.5h-49.94141h-9.0918c-0.36833,0.00016 -0.70675,0.20277 -0.88086,0.52734l-9.11719,17c-0.16613,0.30986 -0.15734,0.6842 0.02313,0.98593c0.18048,0.30173 0.50614,0.48653 0.85773,0.48672h8.54688l-1.63086,3.47656c-4.03061,8.58555 2.28337,18.52344 11.76758,18.52344h30.40234c4.09871,0 7.86153,-2.28128 9.75586,-5.91602c0,-0.00065 0,-0.0013 0,-0.00195l0.72266,-1.38477c2.75353,-5.2881 -1.13552,-11.69727 -7.09766,-11.69727h-32.58398c-1.78467,0 -3.18327,-1.302 -3.4707,-3h39.50586h0.13477c0.07022,0.0002 0.14027,-0.00701 0.20898,-0.02148c10.04968,-0.1391 19.06571,-6.2753 22.83789,-15.61523l0.80469,-1.99609c4.49849,-11.1424 -3.74719,-23.36719 -15.76367,-23.36719zM50.84766,20h23.07227c10.66752,0 17.90367,10.72558 13.91016,20.61719l-0.80664,1.99609c-3.49608,8.65631 -11.86766,14.32813 -21.19531,14.38086c-0.03393,0.00023 -0.06783,0.00218 -0.10156,0.00586h-0.0293h-40.62305c-0.55226,0.00006 -0.99994,0.44774 -1,1v0.41211c0,3.07438 2.51351,5.58789 5.58789,5.58789h32.58399c4.54786,0 7.42273,4.73954 5.32227,8.77344l-0.7207,1.38477c-1.55167,2.97727 -4.62513,4.8418 -7.98242,4.8418h-30.40234c-8.09779,0 -13.39842,-8.34338 -9.95703,-15.67383l2.30078,-4.90039c0.14581,-0.30999 0.12281,-0.67305 -0.06095,-0.96216c-0.18377,-0.28911 -0.50272,-0.46405 -0.8453,-0.46362h-8.45117l8.04688,-15h8.49219h49.94141c1.92094,0 3.5,-1.57906 3.5,-3.5c0,-1.92094 -1.57906,-3.5 -3.5,-3.5h-46.12891l1.73633,-3.83594c3.07808,-6.79953 9.84675,-11.16406 17.31055,-11.16406zM50.84766,23c-5.84075,0 -11.2061,3.20112 -14.00391,8.25781c-0.08572,0.15489 -0.08316,0.34356 0.00674,0.49607c0.0899,0.15251 0.25373,0.24611 0.43076,0.24612h8.70117c0.18032,0.00255 0.34804,-0.09219 0.43894,-0.24794c0.0909,-0.15575 0.0909,-0.34838 0,-0.50413c-0.0909,-0.15575 -0.25863,-0.25049 -0.43894,-0.24794h-7.71094c2.72676,-4.272 7.41756,-7 12.57617,-7h23.07227c0.18032,0.00255 0.34804,-0.09219 0.43894,-0.24794c0.0909,-0.15575 0.0909,-0.34838 0,-0.50413c-0.0909,-0.15575 -0.25863,-0.25049 -0.43894,-0.24794zM78.02734,23.74219c-0.23913,0.00738 -0.43953,0.1831 -0.47809,0.41922c-0.03856,0.23611 0.09553,0.46646 0.31988,0.54953c0.8047,0.30582 1.56752,0.70716 2.27539,1.19531c0.14721,0.10264 0.33813,0.11853 0.50028,0.04163c0.16215,-0.0769 0.27065,-0.2348 0.28432,-0.41373c0.01367,-0.17894 -0.0696,-0.35148 -0.21819,-0.45211c-0.77413,-0.53384 -1.60899,-0.97051 -2.48828,-1.30469c-0.0621,-0.02465 -0.12851,-0.0366 -0.19531,-0.03516zM82.30859,26.65625c-0.19447,0.01108 -0.3648,0.13408 -0.43649,0.3152c-0.07169,0.18111 -0.03169,0.38737 0.10251,0.52855c0.38281,0.4163 0.73803,0.8667 1.06445,1.34961c1.89824,2.8133 2.39112,6.15371 1.41211,9.33789c-0.06222,0.17342 -0.02405,0.36701 0.09936,0.50381c0.12341,0.13681 0.31205,0.19467 0.49094,0.1506c0.17889,-0.04408 0.31906,-0.18296 0.36478,-0.36144c1.06499,-3.46382 0.52265,-7.13871 -1.53711,-10.19141c-0.35358,-0.52309 -0.74101,-1.0131 -1.1582,-1.4668c-0.10173,-0.11387 -0.24992,-0.17501 -0.40234,-0.16602zM49.37109,31c-0.18032,-0.00255 -0.34804,0.09219 -0.43894,0.24794c-0.0909,0.15575 -0.0909,0.34838 0,0.50413c0.0909,0.15575 0.25863,0.25049 0.43894,0.24794h24.55859c0.18032,0.00255 0.34804,-0.09219 0.43894,-0.24794c0.0909,-0.15575 0.0909,-0.34838 0,-0.50413c-0.0909,-0.15575 -0.25863,-0.25049 -0.43894,-0.24794zM82.625,43.1875c-0.18256,-0.00073 -0.35101,0.0981 -0.43945,0.25781c-3.33172,5.83709 -9.51052,9.50983 -16.38086,9.54883c-0.0737,0.00004 -0.14499,0.00256 -0.21289,0.00586h-32.5918c-0.18032,-0.00255 -0.34804,0.09219 -0.43894,0.24794c-0.0909,0.15575 -0.0909,0.34838 0,0.50413c0.0909,0.15575 0.25863,0.25049 0.43894,0.24794h32.61523c0.00846,0.00021 0.01693,0.00021 0.02539,0c0.05748,-0.0027 0.11243,-0.00586 0.16602,-0.00586c0.0013,0.00001 0.0026,0.00001 0.00391,0c7.22366,-0.041 13.73786,-3.90983 17.24414,-10.05273c0.09099,-0.15443 0.09238,-0.34574 0.00362,-0.50147c-0.08875,-0.15572 -0.25407,-0.25203 -0.43331,-0.25244zM21.58984,45l-0.44141,0.26367l-4.29102,8l0.44141,0.73633h2.60156l0.41211,-0.21875l0.05273,-0.46484l-0.35352,-0.30469l-0.11133,-0.01172h-1.76758l3.75586,-7h8.09961l0.41211,-0.21875l0.05273,-0.46484l-0.35352,-0.30469l-0.11133,-0.01172zM33.07813,45l-0.41211,0.21875l-0.05273,0.46484l0.35352,0.30469l0.11133,0.01172h1.74609l0.41211,-0.21875l0.05273,-0.46484l-0.35352,-0.30469l-0.11133,-0.01172zM38.0957,45c-0.18032,-0.00255 -0.34804,0.09219 -0.43894,0.24794c-0.0909,0.15575 -0.0909,0.34838 0,0.50413c0.0909,0.15575 0.25863,0.25049 0.43894,0.24794h31.4043c0.18032,0.00255 0.34804,-0.09219 0.43894,-0.24794c0.0909,-0.15575 0.0909,-0.34838 0,-0.50413c-0.0909,-0.15575 -0.25863,-0.25049 -0.43894,-0.24794zM21.00586,66.61328c-0.25686,-0.00252 -0.47385,0.18998 -0.50195,0.44531c-0.22433,1.79994 0.18787,3.62831 1.20703,5.23242c1.49075,2.3459 3.97263,3.70898 6.75195,3.70898h30.40234c2.24167,0 4.28447,-1.24071 5.32031,-3.22852l0.72266,-1.38477c0.46488,-0.89103 0.38359,-1.74215 0.19531,-2.31055c-0.05384,-0.17252 -0.19658,-0.30256 -0.37335,-0.34015c-0.17677,-0.03759 -0.36007,0.02314 -0.47944,0.15883c-0.11937,0.13569 -0.15624,0.32523 -0.09643,0.49577c0.12772,0.3856 0.1943,0.90623 -0.13281,1.5332l-0.72266,1.38672c-0.86616,1.66219 -2.55927,2.68945 -4.43359,2.68945h-30.40234c-2.45774,0 -4.59079,-1.17145 -5.9082,-3.24609c-0.90084,-1.41789 -1.25427,-3.00221 -1.05859,-4.57227c0.01963,-0.1423 -0.02288,-0.28617 -0.1167,-0.39494c-0.09382,-0.10877 -0.22989,-0.17195 -0.37353,-0.17342zM37.39453,67c-0.18032,-0.00255 -0.34804,0.09219 -0.43894,0.24794c-0.0909,0.15575 -0.0909,0.34838 0,0.50413c0.0909,0.15575 0.25863,0.25049 0.43894,0.24794h19.83984c0.18032,0.00255 0.34804,-0.09219 0.43894,-0.24794c0.0909,-0.15575 0.0909,-0.34838 0,-0.50413c-0.0909,-0.15575 -0.25863,-0.25049 -0.43894,-0.24794zM60.25195,67c-0.18032,-0.00255 -0.34804,0.09219 -0.43894,0.24794c-0.0909,0.15575 -0.0909,0.34838 0,0.50413c0.0909,0.15575 0.25863,0.25049 0.43894,0.24794h1.99414c0.18032,0.00255 0.34804,-0.09219 0.43894,-0.24794c0.0909,-0.15575 0.0909,-0.34838 0,-0.50413c-0.0909,-0.15575 -0.25863,-0.25049 -0.43894,-0.24794z"></path></g></g></svg>